<svg width="1000" height="1000" viewBox="0 0 1000 1000" xmlns="http://www.w3.org/2000/svg"><defs/><path fill="#ffffff" d="M 0 0 L 1000 0 L 1000 1000 L 0 1000 Z"/><g opacity="0.56" transform="matrix(0.369394227285205 0 0 0.369394227285205 6.621360613505347 16.18920118253535)"><path d="M 479.84531683462 1289.54109252639 C 456.74531683462 1316.04109252639 436.94531683462 1345.44109252639 421.14531683462 1377.24109252639 C 461.64531683462 1461.94109252639 536.54531683462 1527.14109252639 627.64531683462 1554.74109252639 C 628.44531683462 1554.54109252639 629.24531683462 1554.24109252639 630.04531683462 1553.94109252639 C 664.24531683462 1514.74109252639 690.84531683462 1468.74109252639 707.64531683462 1418.34109252639 C 618.54531683462 1399.94109252639 539.44531683462 1353.84109252639 479.84531683462 1289.54109252639 Z"/></g><path fill="#777777" transform="matrix(0.369394227285205 0 0 0.369394227285205 6.621360613505347 16.18920118253535)" d="M 858.54531683462 1155.84109252639 C 858.54531683462 1155.84109252639 858.44531683462 1155.74109252639 858.44531683462 1155.74109252639 C 805.04531683462 1105.84109252639 735.54531683462 1073.14109252639 658.64531683462 1066.14109252639 C 677.94531683462 1094.34109252639 693.74531683462 1125.24109252639 705.34531683462 1157.94109252639 C 720.14531683462 1199.74109252639 728.24531683462 1244.64109252639 728.24531683462 1291.54109252639 C 728.24531683462 1335.84109252639 721.04531683462 1378.44109252639 707.74531683462 1418.24109252639 C 690.94531683462 1468.64109252639 664.24531683462 1514.64109252639 630.14531683462 1553.84109252639 C 701.44531683462 1531.64109252639 762.54531683462 1486.44109252639 804.84531683462 1426.94109252639 C 844.14531683462 1371.74109252639 867.24531683462 1304.34109252639 867.24531683462 1231.54109252639 C 867.14531683462 1205.54109252639 864.04531683462 1180.24109252639 858.54531683462 1155.84109252639 Z"/><path transform="matrix(0.369394227285205 0 0 0.369394227285205 6.621360613505347 16.18920118253535)" d="M 658.64531683462 1066.14109252639 C 648.44531683462 1065.24109252639 638.24531683462 1064.74109252639 627.94531683462 1064.74109252639 C 538.34531683462 1064.74109252639 457.04531683462 1099.64109252639 396.64531683462 1156.54109252639 C 396.54531683462 1157.04109252639 396.44531683462 1157.64109252639 396.34531683462 1158.14109252639 C 391.04531683462 1181.84109252639 388.14531683462 1206.44109252639 388.14531683462 1231.64109252639 C 388.14531683462 1283.84109252639 399.94531683462 1333.14109252639 421.14531683462 1377.24109252639 C 436.94531683462 1345.44109252639 456.74531683462 1315.94109252639 479.84531683462 1289.54109252639 C 537.54531683462 1223.54109252639 616.14531683462 1176.24109252639 705.34531683462 1157.94109252639 C 693.64531683462 1125.24109252639 677.94531683462 1094.44109252639 658.64531683462 1066.14109252639 Z"/><path id="text" transform="matrix(1.335200895304752 0 0 1.335200895304752 226.26018779814694 100.29706497812758)" d="M 157.35365972121 315.52977419512 L 161.94740972121 316.42039919512 L 158.33803472121 332.07664919512 L 107.43178472121 332.07664919512 L 108.13490972121 328.04539919512 L 116.52553472121 324.99852419512 L 116.52553472121 274.04539919512 L 107.75990972121 271.09227419512 L 108.55678472121 267.20164919512 L 138.22865972121 267.20164919512 L 137.47865972121 271.23289919512 L 128.66615972121 274.27977419512 L 128.66615972121 327.38914919512 L 151.40053472121 324.52977419512 L 157.35365972121 315.52977419512 Z M 166.44740972121 313.51414919512 C 167.54115972121 311.70164919512 169.35365972121 310.26414919512 171.88490972121 309.20164919512 C 173.54115972121 308.48289919512 175.55678472121 307.95164919512 177.93178472121 307.60789919512 C 180.30678472121 307.26414919512 182.63490972121 307.09227419512 184.91615972121 307.09227419512 C 187.04115972121 307.09227419512 189.07240972121 307.21727419512 191.00990972121 307.46727419512 L 191.00990972121 304.93602419512 C 191.00990972121 302.09227419512 190.73647222121 299.50633669512 190.18959722121 297.17821169512 C 189.64272222121 294.85008669512 188.55678472121 293.18602419512 186.93178472121 292.18602419512 C 186.33803472121 291.81102419512 185.56459722121 291.52977419512 184.61147222121 291.34227419512 C 183.65834722121 291.15477419512 182.66615972121 291.06102419512 181.63490972121 291.06102419512 C 180.72865972121 291.06102419512 179.80678472121 291.17039919512 178.86928472121 291.38914919512 L 177.41615972121 299.63914919512 C 176.82240972121 300.17039919512 176.15053472121 300.61571169512 175.40053472121 300.97508669512 C 174.65053472121 301.33446169512 174.00990972121 301.51414919512 173.47865972121 301.51414919512 C 172.69740972121 301.51414919512 171.73647222121 301.14696169512 170.59584722121 300.41258669512 C 169.45522222121 299.67821169512 168.47084722121 298.77977419512 167.64272222121 297.71727419512 C 166.81459722121 296.65477419512 166.40053472121 295.65477419512 166.40053472121 294.71727419512 C 166.40053472121 293.90477419512 166.93178472121 293.09227419512 167.99428472121 292.27977419512 C 169.05678472121 291.46727419512 170.30678472121 290.73289919512 171.74428472121 290.07664919512 C 174.30678472121 288.95164919512 177.36147222121 288.05321169512 180.90834722121 287.38133669512 C 184.45522222121 286.70946169512 187.16615972121 286.37352419512 189.04115972121 286.37352419512 C 193.72865972121 286.37352419512 197.11928472121 287.63133669512 199.21303472121 290.14696169512 C 201.30678472121 292.66258669512 202.35365972121 296.10789919512 202.35365972121 300.48289919512 L 202.35365972121 322.88914919512 C 204.16615972121 325.20164919512 206.88490972121 326.81102419512 210.50990972121 327.71727419512 L 209.90053472121 330.43602419512 C 206.08803472121 332.21727419512 202.05678472121 333.15477419512 197.80678472121 333.24852419512 C 197.05678472121 331.71727419512 196.25990972121 330.35789919512 195.41615972121 329.17039919512 C 194.57240972121 327.98289919512 193.52553472121 326.88914919512 192.27553472121 325.88914919512 C 191.40053472121 327.10789919512 190.19740972121 328.27977419512 188.66615972121 329.40477419512 C 187.13490972121 330.52977419512 185.41615972121 331.45164919512 183.50990972121 332.17039919512 C 181.60365972121 332.88914919512 179.65053472121 333.24852419512 177.65053472121 333.24852419512 C 174.65053472121 333.24852419512 172.18959722121 332.62352419512 170.26772222121 331.37352419512 C 168.34584722121 330.12352419512 166.95522222121 328.54539919512 166.09584722121 326.63914919512 C 165.23647222121 324.73289919512 164.80678472121 322.77977419512 164.80678472121 320.77977419512 C 164.80678472121 317.74852419512 165.35365972121 315.32664919512 166.44740972121 313.51414919512 Z M 181.30678472121 326.59227419512 C 182.61928472121 326.59227419512 184.25990972121 326.35789919512 186.22865972121 325.88914919512 C 188.19740972121 325.42039919512 189.79115972121 324.90477419512 191.00990972121 324.34227419512 L 191.00990972121 310.51414919512 C 188.29115972121 310.82664919512 185.91615972121 311.24852419512 183.88490972121 311.77977419512 C 181.85365972121 312.31102419512 180.25990972121 312.86571169512 179.10365972121 313.44383669512 C 177.94740972121 314.02196169512 177.19740972121 314.51414919512 176.85365972121 314.92039919512 C 176.35365972121 315.57664919512 176.10365972121 316.59227419512 176.10365972121 317.96727419512 C 176.10365972121 319.46727419512 176.47865972121 321.06102419512 177.22865972121 322.74852419512 C 177.97865972121 324.43602419512 178.85365972121 325.56102419512 179.85365972121 326.12352419512 C 180.19740972121 326.43602419512 180.68178472121 326.59227419512 181.30678472121 326.59227419512 Z M 249.22865972121 325.09227419512 L 249.22865972121 274.13914919512 L 240.41615972121 271.04539919512 L 241.21303472121 267.20164919512 L 262.49428472121 267.20164919512 C 266.21303472121 267.20164919512 269.32240972121 267.27977419512 271.82240972121 267.43602419512 C 274.32240972121 267.59227419512 276.81459722121 267.99071169512 279.29897222121 268.63133669512 C 281.78334722121 269.27196169512 283.99428472121 270.26414919512 285.93178472121 271.60789919512 C 288.08803472121 273.10789919512 289.78334722121 275.11571169512 291.01772222121 277.63133669512 C 292.25209722121 280.14696169512 292.86928472121 283.06102419512 292.86928472121 286.37352419512 C 292.86928472121 289.34227419512 292.24428472121 292.02196169512 290.99428472121 294.41258669512 C 289.74428472121 296.80321169512 287.99428472121 298.79539919512 285.74428472121 300.38914919512 C 283.36928472121 302.07664919512 280.50209722121 303.30321169512 277.14272222121 304.06883669512 C 273.78334722121 304.83446169512 270.47865972121 305.21727419512 267.22865972121 305.21727419512 L 267.79115972121 302.12352419512 C 271.10365972121 300.56102419512 273.62709722121 299.13133669512 275.36147222121 297.83446169512 C 277.09584722121 296.53758669512 278.36928472121 294.98289919512 279.18178472121 293.17039919512 C 279.99428472121 291.35789919512 280.40053472121 288.98289919512 280.40053472121 286.04539919512 C 280.40053472121 280.82664919512 278.64272222121 277.02977419512 275.12709722121 274.65477419512 C 271.61147222121 272.27977419512 267.04115972121 271.06102419512 261.41615972121 270.99852419512 L 261.41615972121 325.13914919512 L 272.71303472121 328.23289919512 L 271.96303472121 332.07664919512 L 240.04115972121 332.07664919512 L 240.88490972121 328.09227419512 L 249.22865972121 325.09227419512 Z M 311.71303472121 278.82664919512 C 310.96303472121 278.82664919512 309.97084722121 278.58446169512 308.73647222121 278.10008669512 C 307.50209722121 277.61571169512 306.36928472121 277.02977419512 305.33803472121 276.34227419512 C 304.30678472121 275.65477419512 303.68178472121 275.02977419512 303.46303472121 274.46727419512 C 303.40053472121 274.21727419512 303.36928472121 273.99852419512 303.36928472121 273.81102419512 C 303.36928472121 273.02977419512 303.62709722121 272.01414919512 304.14272222121 270.76414919512 C 304.65834722121 269.51414919512 305.26772222121 268.38133669512 305.97084722121 267.36571169512 C 306.67397222121 266.35008669512 307.29115972121 265.74852419512 307.82240972121 265.56102419512 C 308.07240972121 265.49852419512 308.30678472121 265.46727419512 308.52553472121 265.46727419512 C 309.33803472121 265.46727419512 310.35365972121 265.72508669512 311.57240972121 266.24071169512 C 312.79115972121 266.75633669512 313.90053472121 267.36571169512 314.90053472121 268.06883669512 C 315.90053472121 268.77196169512 316.49428472121 269.37352419512 316.68178472121 269.87352419512 C 316.74428472121 270.12352419512 316.77553472121 270.32664919512 316.77553472121 270.48289919512 C 316.77553472121 271.26414919512 316.51772222121 272.27977419512 316.00209722121 273.52977419512 C 315.48647222121 274.77977419512 314.86928472121 275.92039919512 314.15053472121 276.95164919512 C 313.43178472121 277.98289919512 312.80678472121 278.59227419512 312.27553472121 278.77977419512 C 312.18178472121 278.81102419512 311.99428472121 278.82664919512 311.71303472121 278.82664919512 Z M 304.63490972121 325.74852419512 L 304.63490972121 295.84227419512 L 297.69740972121 291.95164919512 L 298.11928472121 289.74852419512 L 315.97865972121 286.84227419512 L 315.97865972121 325.93602419512 L 323.10365972121 328.65477419512 L 322.35365972121 332.07664919512 L 297.32240972121 332.07664919512 L 298.02553472121 328.32664919512 L 304.63490972121 325.74852419512 Z M 327.32240972121 291.95164919512 L 327.69740972121 289.74852419512 L 342.41615972121 286.84227419512 L 344.61928472121 294.43602419512 C 347.68178472121 291.99852419512 350.79115972121 290.05321169512 353.94740972121 288.60008669512 C 357.10365972121 287.14696169512 359.97865972121 286.42039919512 362.57240972121 286.42039919512 C 366.16615972121 286.42039919512 369.19740972121 287.69383669512 371.66615972121 290.24071169512 C 374.13490972121 292.78758669512 375.36928472121 297.06102419512 375.36928472121 303.06102419512 L 375.36928472121 325.93602419512 L 382.91615972121 328.60789919512 L 382.16615972121 332.07664919512 L 358.82240972121 332.07664919512 L 359.57240972121 328.37352419512 L 364.02553472121 325.60789919512 L 364.02553472121 306.24852419512 C 364.02553472121 303.24852419512 363.68959722121 300.78758669512 363.01772222121 298.86571169512 C 362.34584722121 296.94383669512 361.54115972121 295.59227419512 360.60365972121 294.81102419512 C 360.07240972121 294.40477419512 359.47865972121 294.20164919512 358.82240972121 294.20164919512 C 357.35365972121 294.20164919512 355.16615972121 294.48289919512 352.25990972121 295.04539919512 C 349.35365972121 295.60789919512 347.02553472121 296.20164919512 345.27553472121 296.82664919512 C 345.30678472121 296.98289919512 345.36147222121 297.33446169512 345.43959722121 297.88133669512 C 345.51772222121 298.42821169512 345.55678472121 298.92039919512 345.55678472121 299.35789919512 L 345.60365972121 325.93602419512 L 352.72865972121 328.65477419512 L 351.93178472121 332.07664919512 L 327.04115972121 332.07664919512 L 327.79115972121 328.23289919512 L 334.21303472121 325.46727419512 L 334.21303472121 295.88914919512 L 327.32240972121 291.95164919512 Z M 400.54115972121 294.85789919512 C 399.13490972121 296.54539919512 398.10365972121 298.47508669512 397.44740972121 300.64696169512 C 396.79115972121 302.81883669512 396.46303472121 305.01414919512 396.46303472121 307.23289919512 C 396.46303472121 312.35789919512 397.71303472121 316.71727419512 400.21303472121 320.31102419512 C 401.43178472121 322.09227419512 402.86147222121 323.48289919512 404.50209722121 324.48289919512 C 406.14272222121 325.48289919512 407.97865972121 325.98289919512 410.00990972121 325.98289919512 C 411.72865972121 325.98289919512 413.91615972121 325.67039919512 416.57240972121 325.04539919512 C 419.22865972121 324.42039919512 421.02553472121 323.90477419512 421.96303472121 323.49852419512 L 422.90053472121 324.99852419512 C 421.90053472121 326.27977419512 420.58022222121 327.55321169512 418.93959722121 328.81883669512 C 417.29897222121 330.08446169512 415.39272222121 331.13914919512 413.22084722121 331.98289919512 C 411.04897222121 332.82664919512 408.79115972121 333.24852419512 406.44740972121 333.24852419512 C 401.94740972121 333.24852419512 398.09584722121 332.29539919512 394.89272222121 330.38914919512 C 391.68959722121 328.48289919512 389.25990972121 325.82664919512 387.60365972121 322.42039919512 C 385.94740972121 319.01414919512 385.11928472121 315.10789919512 385.11928472121 310.70164919512 C 385.11928472121 305.63914919512 386.20522222121 301.27977419512 388.37709722121 297.62352419512 C 390.54897222121 293.96727419512 393.47084722121 291.19383669512 397.14272222121 289.30321169512 C 400.81459722121 287.41258669512 404.88490972121 286.46727419512 409.35365972121 286.46727419512 C 412.69740972121 286.46727419512 415.58803472121 286.99852419512 418.02553472121 288.06102419512 C 419.18178472121 288.56102419512 420.16615972121 289.22508669512 420.97865972121 290.05321169512 C 421.79115972121 290.88133669512 422.19740972121 291.71727419512 422.19740972121 292.56102419512 C 422.19740972121 293.49852419512 421.78334722121 294.53758669512 420.95522222121 295.67821169512 C 420.12709722121 296.81883669512 419.15053472121 297.79539919512 418.02553472121 298.60789919512 C 416.90053472121 299.42039919512 415.94740972121 299.82664919512 415.16615972121 299.82664919512 C 414.54115972121 299.82664919512 413.84584722121 299.63133669512 413.08022222121 299.24071169512 C 412.31459722121 298.85008669512 411.65053472121 298.40477419512 411.08803472121 297.90477419512 L 409.58803472121 290.40477419512 C 405.80678472121 290.77977419512 402.79115972121 292.26414919512 400.54115972121 294.85789919512 Z M 465.15834722121 309.60008669512 C 464.79897222121 309.86571169512 464.27553472121 309.99852419512 463.58803472121 309.99852419512 L 438.74428472121 309.99852419512 C 439.02553472121 312.74852419512 439.76772222121 315.34227419512 440.97084722121 317.77977419512 C 442.17397222121 320.21727419512 443.72865972121 322.17821169512 445.63490972121 323.66258669512 C 447.54115972121 325.14696169512 449.63490972121 325.88914919512 451.91615972121 325.88914919512 C 453.85365972121 325.88914919512 456.22084722121 325.56102419512 459.01772222121 324.90477419512 C 461.81459722121 324.24852419512 463.77553472121 323.70164919512 464.90053472121 323.26414919512 L 465.83803472121 324.85789919512 C 464.68178472121 326.29539919512 463.17397222121 327.65477419512 461.31459722121 328.93602419512 C 459.45522222121 330.21727419512 457.38490972121 331.25633669512 455.10365972121 332.05321169512 C 452.82240972121 332.85008669512 450.54115972121 333.24852419512 448.25990972121 333.24852419512 C 444.57240972121 333.24852419512 441.17397222121 332.45946169512 438.06459722121 330.88133669512 C 434.95522222121 329.30321169512 432.44740972121 326.81883669512 430.54115972121 323.42821169512 C 428.63490972121 320.03758669512 427.68178472121 315.77977419512 427.68178472121 310.65477419512 C 427.68178472121 306.24852419512 428.62709722121 302.19383669512 430.51772222121 298.49071169512 C 432.40834722121 294.78758669512 435.08803472121 291.84227419512 438.55678472121 289.65477419512 C 442.02553472121 287.46727419512 446.00990972121 286.37352419512 450.50990972121 286.37352419512 C 453.91615972121 286.37352419512 456.86928472121 287.06102419512 459.36928472121 288.43602419512 C 461.86928472121 289.81102419512 463.79115972121 291.67821169512 465.13490972121 294.03758669512 C 466.47865972121 296.39696169512 467.15053472121 299.02977419512 467.15053472121 301.93602419512 C 467.15053472121 304.27977419512 466.77553472121 306.42039919512 466.02553472121 308.35789919512 C 465.80678472121 308.92039919512 465.51772222121 309.33446169512 465.15834722121 309.60008669512 Z M 457.16615972121 304.37352419512 C 457.04115972121 301.81102419512 456.46303472121 299.63133669512 455.43178472121 297.83446169512 C 454.40053472121 296.03758669512 453.04115972121 294.67821169512 451.35365972121 293.75633669512 C 449.66615972121 292.83446169512 447.82240972121 292.37352419512 445.82240972121 292.37352419512 C 443.88490972121 292.37352419512 442.58803472121 292.73289919512 441.93178472121 293.45164919512 C 441.11928472121 294.45164919512 440.39272222121 296.05321169512 439.75209722121 298.25633669512 C 439.11147222121 300.45946169512 438.74428472121 303.12352419512 438.65053472121 306.24852419512 L 457.16615972121 304.37352419512 Z"/></svg>